<?xml version="1.0" encoding="UTF-8"?>
<!DOCTYPE svg PUBLIC "-//W3C//DTD SVG 1.1//EN" "http://www.w3.org/Graphics/SVG/1.1/DTD/svg11.dtd">
<!-- Creator: CorelDRAW -->
<svg xmlns="http://www.w3.org/2000/svg" xml:space="preserve" width="6.82666in" height="6.82666in" style="shape-rendering:geometricPrecision; text-rendering:geometricPrecision; image-rendering:optimizeQuality; fill-rule:evenodd; clip-rule:evenodd"
viewBox="0 0 6.82666 6.82666"
 xmlns:xlink="http://www.w3.org/1999/xlink">
 <defs>
  <style type="text/css">
   <![CDATA[
    .fil1 {fill:none}
    .fil2 {fill:#F4511E;fill-rule:nonzero}
    .fil0 {fill:#FF8A65;fill-rule:nonzero}
   ]]>
  </style>
 </defs>
 <g id="Layer_x0020_1">
  <metadata id="CorelCorpID_0Corel-Layer"/>
  <path class="fil0" d="M3.47143 4.87249l-1.44908 0.872087 -0.261567 0.157417 0.106996 -0.285744c0.0616772,-0.164717 0.108984,-0.350642 0.139638,-0.536591 0.0311063,-0.188724 0.0448661,-0.376201 0.0389094,-0.540386l-0.00197638 -0.0010748c-0.317713,-0.172606 -0.581587,-0.405622 -0.764331,-0.678484 -0.177906,-0.265634 -0.279138,-0.568299 -0.279138,-0.889512 0,-0.134126 0.0178228,-0.266839 0.0526654,-0.396406 0.0346614,-0.128874 0.0867323,-0.255 0.155398,-0.376622 0.199846,-0.353925 0.515882,-0.632374 0.892283,-0.824142 0.392295,-0.199862 0.851091,-0.306366 1.31202,-0.306366 0.461102,0 0.920106,0.10663 1.31252,0.306673 0.376571,0.191961 0.692673,0.470634 0.892394,0.824752 0.0685276,0.121528 0.120488,0.247508 0.155059,0.376193 0.0347677,0.129421 0.0525512,0.261969 0.0525512,0.395917 0,0.118272 -0.0144528,0.236315 -0.0426654,0.352787 -0.0280709,0.11587 -0.0700157,0.229362 -0.125134,0.339142 -0.183346,0.365264 -0.491484,0.658807 -0.865449,0.865244 -0.38785,0.214102 -0.848083,0.335008 -1.31332,0.344945l-0.00778346 0.000169291z"/>
  <g id="_491466272">
   <rect id="_491466368" class="fil1" width="6.82666" height="6.82666"/>
   <rect id="_491466344" class="fil1" x="0.853331" y="0.853331" width="5.12" height="5.12"/>
  </g>
  <path class="fil2" d="M2.23326 2.67839c-0.191866,0 -0.348287,0.135201 -0.348287,0.300846 0,0.165669 0.156421,0.30076 0.348287,0.30076 0.192122,0 0.348445,-0.134843 0.348445,-0.30076 0,-0.165894 -0.156323,-0.300846 -0.348445,-0.300846z"/>
  <path class="fil2" d="M3.41325 2.67839c-0.191898,0 -0.348287,0.135201 -0.348287,0.300846 0,0.165669 0.15639,0.30076 0.348287,0.30076 0.191866,0 0.348445,-0.135035 0.348445,-0.30076 0,-0.165701 -0.156579,-0.300846 -0.348445,-0.300846z"/>
  <path class="fil2" d="M4.61572 2.67839c-0.191866,0 -0.348449,0.135146 -0.348449,0.300846 0,0.165724 0.156583,0.30076 0.348449,0.30076 0.192059,0 0.348898,-0.134815 0.348898,-0.30076 0,-0.165921 -0.156839,-0.300846 -0.348898,-0.300846z"/>
 </g>
</svg>
